<svg preserveAspectRatio="none" width="100%" height="100%" overflow="visible" style="display: block;" viewBox="0 0 31.6101 31.6101" fill="none" xmlns="http://www.w3.org/2000/svg">
<g id="mdi:handshake">
<path id="Vector" d="M14.4882 7.90246H18.4394L22.7727 3.55608C22.8951 3.43263 23.0408 3.33464 23.2013 3.26778C23.3618 3.20091 23.5339 3.16649 23.7078 3.16649C23.8817 3.16649 24.0538 3.20091 24.2143 3.26778C24.3748 3.33464 24.5205 3.43263 24.6429 3.55608L28.041 6.96733C28.2863 7.21411 28.424 7.54792 28.424 7.89588C28.424 8.24383 28.2863 8.57765 28.041 8.82443L25.0249 11.8537H14.4882V14.4879C14.4882 14.8372 14.3494 15.1722 14.1024 15.4192C13.8554 15.6662 13.5204 15.805 13.1711 15.805C12.8218 15.805 12.4868 15.6662 12.2398 15.4192C11.9928 15.1722 11.854 14.8372 11.854 14.4879V10.5366C11.854 9.83801 12.1315 9.168 12.6255 8.674C13.1195 8.17999 13.7895 7.90246 14.4882 7.90246ZM6.58565 14.4879V19.7562L3.56952 22.7724C3.32421 23.0192 3.18652 23.353 3.18652 23.7009C3.18652 24.0489 3.32421 24.3827 3.56952 24.6295L6.96761 28.0407C7.09005 28.1642 7.23572 28.2622 7.39622 28.329C7.55672 28.3959 7.72887 28.4303 7.90274 28.4303C8.07661 28.4303 8.24876 28.3959 8.40926 28.329C8.56976 28.2622 8.71543 28.1642 8.83787 28.0407L14.4882 22.3904H19.7565C20.1058 22.3904 20.4408 22.2517 20.6878 22.0047C20.9348 21.7577 21.0736 21.4227 21.0736 21.0733V19.7562H22.3907C22.74 19.7562 23.075 19.6175 23.322 19.3705C23.569 19.1235 23.7078 18.7885 23.7078 18.4392V17.1221H25.0249C25.3742 17.1221 25.7092 16.9833 25.9562 16.7363C26.2032 16.4893 26.342 16.1543 26.342 15.805V14.4879H17.1223V15.805C17.1223 16.5036 16.8448 17.1736 16.3508 17.6676C15.8568 18.1616 15.1868 18.4392 14.4882 18.4392H11.854C11.1554 18.4392 10.4854 18.1616 9.99136 17.6676C9.49736 17.1736 9.21983 16.5036 9.21983 15.805V11.8537L6.58565 14.4879Z" fill="var(--fill-0, white)"/>
</g>
</svg>
