<svg width="1800" height="237" viewBox="0 0 1800 237" fill="none" xmlns="http://www.w3.org/2000/svg">
<path d="M0 231.25V0H107.216C119.29 0 130.395 1.83275 140.529 5.49825C150.717 9.16374 159.476 14.3116 166.807 20.9418C174.138 27.5182 179.852 35.3613 183.949 44.4711C188.045 53.527 190.094 63.4993 190.094 74.388C190.094 85.2228 188.018 95.222 183.868 104.386C179.771 113.55 174.057 121.446 166.726 128.077C159.395 134.707 150.636 139.882 140.448 143.601C130.314 147.321 119.236 149.18 107.216 149.18H28.1381L33.9597 142.55V231.25H0ZM31.2106 31.5341L33.9597 28.0572V123.144L29.6743 117.646H104.547C112.418 117.646 119.533 116.649 125.894 114.655C132.254 112.606 137.672 109.722 142.146 106.003C146.62 102.23 150.07 97.6747 152.495 92.3381C154.921 87.0016 156.134 81.0182 156.134 74.388C156.134 67.8117 154.948 61.8822 152.576 56.5996C150.204 51.3169 146.808 46.8159 142.388 43.0965C137.968 39.3771 132.605 36.5202 126.298 34.5257C120.045 32.5313 113.01 31.5341 105.194 31.5341H31.2106Z" fill="#FF4800"/>
<path d="M246.524 231.25H212.564V0H324.47C336.005 0 346.543 1.67104 356.085 5.01311C365.68 8.35518 373.927 13.0449 380.827 19.0821C387.78 25.0655 393.171 32.2348 396.998 40.59C400.825 48.8912 402.739 58.055 402.739 68.0812C402.739 77.2449 401.122 85.5462 397.887 92.985C394.707 100.37 390.179 106.704 384.303 111.986C378.428 117.269 371.366 121.339 363.119 124.196C354.872 127.053 345.708 128.481 335.628 128.481V128.319C340.264 128.319 344.63 129.101 348.727 130.664C352.823 132.227 356.677 134.545 360.289 137.618C363.955 140.69 367.351 144.491 370.477 149.019C373.603 153.547 376.487 158.775 379.129 164.705L408.965 231.25H371.69L341.935 164.786C339.994 160.419 337.757 156.754 335.224 153.789C332.744 150.77 329.725 148.345 326.168 146.512C322.61 144.679 318.405 143.359 313.554 142.55C308.703 141.741 302.935 141.337 296.251 141.337H242.239L246.524 135.758V231.25ZM243.775 31.5341L246.524 28.0572V115.301L242.239 109.803H320.103C327.704 109.803 334.523 108.887 340.56 107.054C346.597 105.221 351.691 102.607 355.842 99.2109C360.047 95.7611 363.254 91.5565 365.464 86.5973C367.674 81.6381 368.779 76.0321 368.779 69.7792C368.779 63.6341 367.701 58.1897 365.545 53.4462C363.389 48.7026 360.235 44.7137 356.085 41.4794C351.934 38.2451 346.813 35.7925 340.722 34.1214C334.685 32.3965 327.758 31.5341 319.942 31.5341H243.775Z" fill="#FF4800"/>
<path d="M455.783 231.25H420.53L506.723 0H557.662L642.723 231.25H606.661L526.29 10.6731H537.287L455.783 231.25ZM461.928 173.276V142.55H603.912V173.276H461.928Z" fill="#FF4800"/>
<path d="M659.17 231.25V0H735.256C747.169 0 758.354 1.2398 768.812 3.7194C779.323 6.199 788.972 9.81059 797.758 14.5542C806.545 19.2439 814.415 24.9847 821.368 31.7766C828.376 38.5147 834.278 46.1691 839.076 54.7399C843.927 63.3107 847.62 72.717 850.153 82.9588C852.741 93.1467 854.034 104.035 854.034 115.625C854.034 127.214 852.741 138.13 850.153 148.372C847.62 158.56 843.927 167.939 839.076 176.51C834.278 185.081 828.376 192.762 821.368 199.554C814.415 206.292 806.545 212.033 797.758 216.776C788.972 221.466 779.323 225.051 768.812 227.53C758.354 230.01 747.169 231.25 735.256 231.25H659.17ZM692.321 205.537L686.5 199.716H735.256C744.096 199.716 752.317 198.853 759.917 197.128C767.518 195.403 774.445 192.897 780.697 189.609C787.004 186.266 792.583 182.17 797.435 177.318C802.34 172.467 806.464 166.942 809.806 160.743C813.148 154.49 815.681 147.59 817.406 140.043C819.185 132.497 820.075 124.357 820.075 115.625C820.075 106.892 819.185 98.7528 817.406 91.2061C815.681 83.6595 813.148 76.7867 809.806 70.5877C806.464 64.3348 802.34 58.7827 797.435 53.9313C792.583 49.0799 787.004 45.0101 780.697 41.722C774.445 38.3799 767.518 35.8464 759.917 34.1214C752.317 32.3965 744.096 31.5341 735.256 31.5341H686.5L692.321 25.7124V205.537Z" fill="#FF4800"/>
<path d="M1021.3 0H1059.71L962.114 153.142L968.34 129.936V231.25H934.38V130.017L940.364 153.142L843.902 0H883.198L960.012 123.872H943.517L1021.3 0Z" fill="#FF4800"/>
<path d="M1075.45 134.222V0H1109.41V134.222C1109.41 141.661 1110.06 148.587 1111.36 155.002C1112.65 161.363 1114.54 167.157 1117.02 172.386C1119.55 177.561 1122.65 182.17 1126.31 186.213C1130.03 190.201 1134.26 193.571 1139.01 196.32C1143.81 199.015 1149.14 201.063 1155.02 202.465C1160.89 203.866 1167.25 204.567 1174.1 204.567C1180.95 204.567 1187.31 203.866 1193.18 202.465C1199.06 201.063 1204.37 199.015 1209.11 196.32C1213.91 193.571 1218.14 190.201 1221.81 186.213C1225.52 182.17 1228.62 177.561 1231.1 172.386C1233.64 167.157 1235.55 161.363 1236.84 155.002C1238.14 148.587 1238.79 141.661 1238.79 134.222V0H1272.74V134.222C1272.74 144.571 1271.69 154.274 1269.59 163.33C1267.49 172.386 1264.44 180.687 1260.45 188.234C1256.52 195.781 1251.67 202.519 1245.9 208.448C1240.19 214.378 1233.66 219.391 1226.33 223.487C1219.06 227.584 1211.02 230.711 1202.24 232.867C1193.51 235.023 1184.13 236.101 1174.1 236.101C1164.07 236.101 1154.67 235.023 1145.88 232.867C1137.15 230.711 1129.12 227.584 1121.79 223.487C1114.51 219.391 1107.99 214.378 1102.22 208.448C1096.5 202.519 1091.65 195.781 1087.66 188.234C1083.73 180.687 1080.71 172.386 1078.61 163.33C1076.51 154.274 1075.45 144.571 1075.45 134.222Z" fill="#FF4800"/>
<path d="M1509.87 0H1567.36V231.25H1533.4V16.7373H1537.93L1456.02 231.25H1408.32L1327.46 16.7373H1331.91V231.25H1298.76V0H1356.41L1437.35 216.049H1427.8L1509.87 0Z" fill="#FF4800"/>
<path d="M1800 0V231.25H1744.86L1627.37 20.861L1627.86 20.7801V231.25H1594.71V0H1654.7L1767.33 201.656L1766.85 201.818V0H1800Z" fill="#FF4800"/>
</svg>
